<svg width="20" height="20" viewBox="0 0 20 20" fill="none" xmlns="http://www.w3.org/2000/svg">
<path fill-rule="evenodd" clip-rule="evenodd" d="M17.4118 10.0001C17.4118 14.0934 14.0934 17.4119 10 17.4119C5.90665 17.4119 2.58823 14.0934 2.58823 10.0001C2.58823 5.90675 5.90665 2.58833 10 2.58833C14.0933 2.58833 17.4118 5.90675 17.4118 10.0001ZM1 10C1 14.9707 5.0292 19 10 19C14.9707 19 19 14.9707 19 10C19 5.0293 14.9707 1 10 1C5.0293 1 1 5.0293 1 10ZM6.29412 9.20598H8.94118C9.08724 9.20598 9.20578 9.08743 9.20578 8.94138V6.29432C9.20578 5.85559 9.5614 5.50015 9.99994 5.50015C10.4385 5.50015 10.7941 5.85561 10.7941 6.29432V8.94138C10.7941 9.08743 10.9127 9.20598 11.0587 9.20598H13.7058C14.1445 9.20598 14.4999 9.5616 14.4999 10.0001C14.4999 10.4387 14.1445 10.7943 13.7058 10.7943H11.0587C10.9127 10.7943 10.7941 10.9128 10.7941 11.0589V13.706C10.7941 14.1447 10.4385 14.5001 9.99994 14.5001C9.5614 14.5001 9.20578 14.1447 9.20578 13.706V11.0589C9.20578 10.9128 9.08723 10.7943 8.94118 10.7943H6.29412C5.8554 10.7943 5.49996 10.4387 5.49996 10.0001C5.49996 9.5616 5.85541 9.20598 6.29412 9.20598Z" fill="white"/>
</svg>
