<svg width="20" height="20" viewBox="0 0 20 20" fill="none" xmlns="http://www.w3.org/2000/svg">
<path d="M4.0348 9.66759C4.0348 9.73759 4 9.84244 4 9.94745V10.0525C4 10.1575 4.0348 10.2623 4.0348 10.3323L4.0696 10.3673V10.4373H4.1044V10.5073H4.13921C4.13921 10.5423 4.17401 10.5774 4.17401 10.6124H4.20881V10.6474L4.24361 10.6824V10.7174H4.27841L9.21742 15.6851C9.63488 16.105 10.2956 16.105 10.7131 15.6851C11.0957 15.3002 11.0957 14.6355 10.7131 14.2158L7.54793 11.067H14.9564C15.5477 11.067 16 10.5773 16 10.0174C16 9.4227 15.5479 8.93295 14.9564 8.93295H7.54793L10.7131 5.78425C11.0957 5.36437 11.0957 4.69978 10.7131 4.31491C10.2956 3.89503 9.63488 3.89503 9.21742 4.31491L4.27841 9.28263H4.24361V9.31764L4.20881 9.35264V9.38764H4.17401C4.17401 9.42265 4.13921 9.45765 4.13921 9.49266H4.1044V9.56266H4.0696V9.63267L4.0348 9.66759Z" fill="white"/>
</svg>
