<svg width="12" height="11" viewBox="0 0 12 11" fill="none" xmlns="http://www.w3.org/2000/svg">
<path id="check" d="M10.813 0.000620416C10.5131 0.0125293 10.2288 0.163407 10.0208 0.421168C7.81348 3.05722 6.12777 5.25885 4.07914 7.75047L1.89693 5.55339C1.58189 5.23596 1.1485 5.14337 0.760547 5.31063C0.37259 5.47789 0.089232 5.87948 0.0175548 6.36364C-0.0541224 6.8478 0.0968125 7.34069 0.413321 7.65605L3.40935 10.677C3.8663 11.1357 4.54163 11.1022 4.96498 10.5998C7.44707 7.63564 9.21396 5.2681 11.6484 2.36077C11.9907 1.96657 12.0944 1.36219 11.9094 0.83957C11.7244 0.316948 11.2888 -0.0163708 10.813 0.000620416V0.000620416Z" fill="white"/>
</svg>
