<svg width="14" height="15" viewBox="0 0 14 15" fill="none" xmlns="http://www.w3.org/2000/svg">
<path d="M12.0909 10.6819H10.1819V12.5909C10.1819 13.0972 9.98073 13.5827 9.62268 13.9408C9.26462 14.2989 8.77903 14.5 8.2728 14.5H1.90907C1.40284 14.5 0.917252 14.2989 0.559193 13.9408C0.201134 13.5827 0 13.0972 0 12.5909V6.2272C0 5.72097 0.201134 5.23538 0.559193 4.87732C0.917252 4.51927 1.40284 4.31813 1.90907 4.31813H3.81813V2.40906C3.81813 1.90283 4.01927 1.41725 4.37733 1.05919C4.73538 0.701132 5.22097 0.5 5.7272 0.5H12.0909C12.5972 0.5 13.0827 0.701132 13.4408 1.05919C13.7989 1.41725 14 1.90283 14 2.40906V8.7728C14 9.27903 13.7989 9.76462 13.4408 10.1227C13.0827 10.4807 12.5972 10.6819 12.0909 10.6819ZM1.2728 6.2272V12.5909C1.2728 12.7597 1.33981 12.9215 1.45923 13.0408C1.57855 13.1602 1.74038 13.2273 1.90912 13.2273H8.27285C8.4416 13.2273 8.60342 13.1602 8.72274 13.0408C8.84216 12.9215 8.90917 12.7597 8.90917 12.5909V6.2272C8.90917 6.05845 8.84216 5.89663 8.72274 5.77731C8.60342 5.65789 8.44159 5.59088 8.27285 5.59088H1.90912C1.74037 5.59088 1.57855 5.65789 1.45923 5.77731C1.33981 5.89663 1.2728 6.05846 1.2728 6.2272ZM12.7272 2.40906C12.7272 2.24032 12.6602 2.0785 12.5408 1.95918C12.4215 1.83976 12.2596 1.77275 12.0909 1.77275H5.72715C5.5584 1.77275 5.39658 1.83976 5.27726 1.95918C5.15784 2.0785 5.09083 2.24033 5.09083 2.40906V4.31813H8.2727C8.77893 4.31813 9.26451 4.51927 9.62257 4.87732C9.98063 5.23538 10.1818 5.72097 10.1818 6.2272V9.40907H12.0908C12.2596 9.40907 12.4214 9.34206 12.5407 9.22263C12.6601 9.10332 12.7271 8.94148 12.7271 8.77275L12.7272 2.40906Z" fill="white"/>
</svg>
