<svg width="20" height="20" viewBox="0 0 20 20" fill="none" xmlns="http://www.w3.org/2000/svg">
<path fill-rule="evenodd" clip-rule="evenodd" d="M17.7649 9.07607C17.9991 9.22242 18.0703 9.5309 17.9239 9.76506C17.4849 10.4675 16.9632 11.1066 16.3702 11.6632L17.5712 12.8642C17.7664 13.0594 17.7664 13.376 17.5712 13.5713C17.3759 13.7665 17.0593 13.7665 16.8641 13.5713L15.6011 12.3083C14.805 12.9029 13.9089 13.3622 12.9338 13.6511L13.383 15.3278C13.4544 15.5945 13.2961 15.8686 13.0294 15.9401C12.7627 16.0116 12.4885 15.8533 12.417 15.5866L11.9592 13.8776C11.4874 13.9581 11.0004 14 10.5 14C9.99965 14 9.51257 13.9581 9.04082 13.8776L8.58299 15.5865C8.51153 15.8533 8.23737 16.0116 7.97064 15.9401C7.7039 15.8687 7.5456 15.5945 7.61706 15.3278L8.06625 13.6511C7.09111 13.3622 6.19503 12.9029 5.3989 12.3083L4.1359 13.5713C3.94064 13.7665 3.62406 13.7665 3.4288 13.5713C3.23354 13.376 3.23354 13.0594 3.4288 12.8642L4.62982 11.6631C4.03682 11.1065 3.51511 10.4675 3.07607 9.76506C2.92971 9.5309 3.0009 9.22242 3.23506 9.07607C3.46923 8.92971 3.7777 9.0009 3.92406 9.23507C4.40354 10.0022 4.989 10.6807 5.66233 11.2428C5.67315 11.2511 5.6837 11.2598 5.69397 11.2691C7.00897 12.3554 8.65537 13 10.5 13C13.3078 13 15.6564 11.5064 17.076 9.23506C17.2223 9.0009 17.5308 8.92971 17.7649 9.07607Z" fill="white"/>
</svg>
