<svg width="20" height="20" viewBox="0 0 20 20" fill="none" xmlns="http://www.w3.org/2000/svg">
<path fill-rule="evenodd" clip-rule="evenodd" d="M10.5 14C7.80285 14 5.52952 12.6218 4.09622 10.5C5.52952 8.37816 7.80285 7 10.5 7C13.1971 7 15.4705 8.37816 16.9038 10.5C15.4705 12.6218 13.1971 14 10.5 14ZM10.5 6C7.30786 6 4.65639 7.70638 3.076 10.235C2.97467 10.3972 2.97467 10.6029 3.076 10.765C4.65639 13.2936 7.30786 15 10.5 15C13.6921 15 16.3436 13.2936 17.924 10.765C18.0253 10.6029 18.0253 10.3972 17.924 10.235C16.3436 7.70638 13.6921 6 10.5 6ZM10.5 12.5C11.6046 12.5 12.5 11.6046 12.5 10.5C12.5 9.39543 11.6046 8.5 10.5 8.5C9.39543 8.5 8.5 9.39543 8.5 10.5C8.5 11.6046 9.39543 12.5 10.5 12.5Z" fill="white"/>
</svg>
