<svg width="20" height="20" viewBox="0 0 20 20" fill="none" xmlns="http://www.w3.org/2000/svg">
<path d="M15.9652 10.3324C15.9652 10.2624 16 10.1576 16 10.0525V9.94754C16 9.84253 15.9652 9.73768 15.9652 9.66767L15.9304 9.63267V9.56266H15.8956V9.49266H15.8608C15.8608 9.45765 15.826 9.42265 15.826 9.38764H15.7912V9.35264L15.7564 9.31764V9.28263H15.7216L10.7826 4.31491C10.3651 3.89503 9.70437 3.89503 9.28692 4.31491C8.90427 4.69979 8.90427 5.36453 9.28692 5.78425L12.4521 8.93295L5.04356 8.93295C4.45227 8.93295 4 9.42266 4 9.98257C4 10.5773 4.45211 11.067 5.04356 11.067L12.4521 11.067L9.28692 14.2157C8.90427 14.6356 8.90427 15.3002 9.28692 15.6851C9.70437 16.105 10.3651 16.105 10.7826 15.6851L15.7216 10.7174H15.7564V10.6824L15.7912 10.6474V10.6124H15.826C15.826 10.5774 15.8608 10.5423 15.8608 10.5073H15.8956V10.4373H15.9304V10.3673L15.9652 10.3324Z" fill="white"/>
</svg>
