<svg width="20" height="20" viewBox="0 0 20 20" fill="none" xmlns="http://www.w3.org/2000/svg">
<path fill-rule="evenodd" clip-rule="evenodd" d="M2.9122 6.5018C4.80017 4.59001 7.18497 1.30563 10.0171 4.05074C11.8555 5.91344 10.7127 7.72706 9.32157 9.14868L13.1473 12.9232C14.1907 11.8938 14.9857 10.7173 16.3272 12.0409L15.0355 13.3154L16.0789 14.3448L17.3706 13.1193C18.7122 14.4428 17.6688 15.08 16.4763 16.2077C18.0662 17.7762 16.2776 18.3645 15.731 17.7762L8.12911 10.2761C3.75677 14.5899 0.278745 9.05059 2.91208 6.50156L2.9122 6.5018ZM3.9556 7.53123C5.89333 5.61944 7.28442 3.46257 8.92416 5.12927C10.4644 6.59982 7.93048 8.41353 6.39022 9.93308C4.84995 11.4527 2.41525 9.05073 3.95566 7.53112L3.9556 7.53123Z" fill="white"/>
</svg>
