<svg width="20" height="20" viewBox="0 0 20 20" fill="none" xmlns="http://www.w3.org/2000/svg">
<path d="M7.15625 9.5625C7.15625 9.65367 7.12003 9.7411 7.05557 9.80557C6.9911 9.87003 6.90367 9.90625 6.8125 9.90625C6.72133 9.90625 6.6339 9.87003 6.56943 9.80557C6.50497 9.7411 6.46875 9.65367 6.46875 9.5625C6.46875 9.47133 6.50497 9.3839 6.56943 9.31943C6.6339 9.25497 6.72133 9.21875 6.8125 9.21875C6.90367 9.21875 6.9911 9.25497 7.05557 9.31943C7.12003 9.3839 7.15625 9.47133 7.15625 9.5625ZM7.15625 9.5625H6.8125M10.5938 9.5625C10.5938 9.65367 10.5575 9.7411 10.4931 9.80557C10.4286 9.87003 10.3412 9.90625 10.25 9.90625C10.1588 9.90625 10.0714 9.87003 10.0069 9.80557C9.94247 9.7411 9.90625 9.65367 9.90625 9.5625C9.90625 9.47133 9.94247 9.3839 10.0069 9.31943C10.0714 9.25497 10.1588 9.21875 10.25 9.21875C10.3412 9.21875 10.4286 9.25497 10.4931 9.31943C10.5575 9.3839 10.5938 9.47133 10.5938 9.5625ZM10.5938 9.5625H10.25M14.0313 9.5625C14.0313 9.65367 13.995 9.7411 13.9306 9.80557C13.8661 9.87003 13.7787 9.90625 13.6875 9.90625C13.5963 9.90625 13.5089 9.87003 13.4444 9.80557C13.38 9.7411 13.3438 9.65367 13.3438 9.5625C13.3438 9.47133 13.38 9.3839 13.4444 9.31943C13.5089 9.25497 13.5963 9.21875 13.6875 9.21875C13.7787 9.21875 13.8661 9.25497 13.9306 9.31943C13.995 9.3839 14.0313 9.47133 14.0313 9.5625ZM14.0313 9.5625H13.6875M18.5 9.5625C18.5 13.7388 14.8058 17.125 10.25 17.125C9.45909 17.126 8.67153 17.0221 7.90792 16.8161C6.83153 17.5731 5.51846 17.9171 4.20917 17.785C4.0636 17.771 3.91865 17.7511 3.77467 17.7254C4.22646 17.193 4.53501 16.5541 4.67117 15.8692C4.75367 15.4502 4.54925 15.0432 4.24308 14.7453C2.8525 13.3923 2 11.5691 2 9.5625C2 5.38617 5.69417 2 10.25 2C14.8058 2 18.5 5.38617 18.5 9.5625Z" stroke="white" stroke-width="1.375" stroke-linecap="round" stroke-linejoin="round"/>
</svg>
