<svg width="20" height="20" viewBox="0 0 20 20" fill="none" xmlns="http://www.w3.org/2000/svg">
<path d="M15.3178 15.9777C14.6967 15.1554 13.8931 14.4885 12.9704 14.0296C12.0477 13.5707 11.031 13.3323 10.0004 13.3333C8.96991 13.3323 7.95323 13.5707 7.03051 14.0296C6.10778 14.4885 5.30421 15.1554 4.68311 15.9777M15.3178 15.9777C16.5298 14.8997 17.3845 13.4786 17.7704 11.9031C18.1562 10.3275 18.054 8.67192 17.4773 7.1558C16.9006 5.63968 15.8766 4.33469 14.5412 3.41389C13.2058 2.49309 11.6221 2 10 2C8.37792 2 6.79416 2.49309 5.45876 3.41389C4.12336 4.33469 3.0994 5.63968 2.5227 7.1558C1.94599 8.67192 1.84378 10.3275 2.22962 11.9031C2.61546 13.4786 3.47111 14.8997 4.68311 15.9777M15.3178 15.9777C13.8547 17.2828 11.961 18.0028 10.0004 18C8.03958 18.003 6.14643 17.283 4.68311 15.9777M12.6671 7.99983C12.6671 8.70709 12.3862 9.38538 11.8861 9.88548C11.386 10.3856 10.7077 10.6665 10.0004 10.6665C9.2932 10.6665 8.61492 10.3856 8.11483 9.88548C7.61473 9.38538 7.33378 8.70709 7.33378 7.99983C7.33378 7.29258 7.61473 6.61429 8.11483 6.11418C8.61492 5.61408 9.2932 5.33312 10.0004 5.33312C10.7077 5.33312 11.386 5.61408 11.8861 6.11418C12.3862 6.61429 12.6671 7.29258 12.6671 7.99983Z" stroke="white" stroke-width="1.25" stroke-linecap="round" stroke-linejoin="round"/>
</svg>
