<svg width="20" height="20" viewBox="0 0 20 20" fill="none" xmlns="http://www.w3.org/2000/svg">
<path d="M12.8284 12.8284C12.457 13.1999 12.0161 13.4945 11.5307 13.6955C11.0454 13.8966 10.5253 14 10 14C9.47471 14 8.95456 13.8966 8.46926 13.6955C7.98395 13.4945 7.54299 13.1999 7.17156 12.8284M18 10C18 11.0506 17.7931 12.0909 17.391 13.0615C16.989 14.0321 16.3997 14.914 15.6569 15.6569C14.914 16.3997 14.0321 16.989 13.0615 17.391C12.0909 17.7931 11.0506 18 10 18C8.94943 18 7.90914 17.7931 6.93853 17.391C5.96793 16.989 5.08601 16.3997 4.34315 15.6569C3.60028 14.914 3.011 14.0321 2.60896 13.0615C2.20693 12.0909 2 11.0506 2 10C2 7.87827 2.84285 5.84344 4.34315 4.34315C5.84344 2.84285 7.87827 2 10 2C12.1217 2 14.1566 2.84285 15.6569 4.34315C17.1571 5.84344 18 7.87827 18 10ZM8 8C8 8.368 7.85067 8.66667 7.66667 8.66667C7.48267 8.66667 7.33333 8.368 7.33333 8C7.33333 7.632 7.48267 7.33333 7.66667 7.33333C7.85067 7.33333 8 7.632 8 8ZM7.66667 8H7.67378V8.01333H7.66667V8ZM12.6667 8C12.6667 8.368 12.5173 8.66667 12.3333 8.66667C12.1493 8.66667 12 8.368 12 8C12 7.632 12.1493 7.33333 12.3333 7.33333C12.5173 7.33333 12.6667 7.632 12.6667 8ZM12.3333 8H12.3404V8.01333H12.3333V8Z" stroke="white" stroke-width="1.25" stroke-linecap="round" stroke-linejoin="round"/>
</svg>
