<svg width="20" height="20" viewBox="0 0 20 20" fill="none" xmlns="http://www.w3.org/2000/svg">
<path fill-rule="evenodd" clip-rule="evenodd" d="M6.61111 2C6.21224 2 5.88889 2.29848 5.88889 2.66667C5.88889 3.03485 6.21224 3.33333 6.61111 3.33333H12.3889C12.7878 3.33333 13.1111 3.03485 13.1111 2.66667C13.1111 2.29848 12.7878 2 12.3889 2H6.61111ZM3 5.33333C3 4.96515 3.32335 4.66667 3.72222 4.66667H5.88889H13.1111H15.2778C15.6766 4.66667 16 4.96515 16 5.33333C16 5.70152 15.6766 6 15.2778 6H14.5556V16.6667C14.5556 17.4031 13.9089 18 13.1111 18H5.88889C5.09115 18 4.44444 17.4031 4.44444 16.6667V6H3.72222C3.32335 6 3 5.70152 3 5.33333ZM5.88889 6H13.1111V16.6667H5.88889V6Z" fill="#D54349"/>
</svg>
