<svg width="17" height="16" viewBox="0 0 17 16" fill="none" xmlns="http://www.w3.org/2000/svg">
<path d="M16.5 8.38095C16.5 7.17714 15.8334 6.13333 14.8635 5.63809C14.9808 5.30667 15.0448 4.94857 15.0448 4.57143C15.0448 2.88762 13.742 1.52533 12.136 1.52533C11.7779 1.52533 11.4351 1.58933 11.1182 1.71581C10.6473 0.697143 9.6508 0 8.50038 0C7.34996 0 6.35496 0.698667 5.88184 1.71429C5.56566 1.58857 5.22206 1.52381 4.86398 1.52381C3.25644 1.52381 1.95517 2.88762 1.95517 4.57143C1.95517 4.94781 2.0184 5.3059 2.13573 5.63809C1.16663 6.13333 0.5 7.17562 0.5 8.38095C0.5 9.52 1.09578 10.5128 1.97955 11.037C1.96431 11.1665 1.95517 11.296 1.95517 11.4286C1.95517 13.1124 3.25644 14.4762 4.86398 14.4762C5.22206 14.4762 5.5649 14.4107 5.88108 14.2857C6.35344 15.3021 7.34844 16 8.49962 16C9.65156 16 10.6466 15.3021 11.1182 14.2857C11.4343 14.4099 11.7772 14.4747 12.136 14.4747C13.7436 14.4747 15.0448 13.1109 15.0448 11.427C15.0448 11.2945 15.0357 11.165 15.0197 11.0362C15.9019 10.5128 16.5 9.52 16.5 8.38171V8.38095ZM11.4595 5.84076L8.15754 10.7931C8.04707 10.9585 7.86651 11.0476 7.68137 11.0476C7.57243 11.0476 7.46195 11.0171 7.36444 10.9516L7.27682 10.88L5.43691 9.04C5.21368 8.81676 5.21368 8.45486 5.43691 8.23238C5.66014 8.0099 6.02202 8.00838 6.24449 8.23238L7.593 9.57867L10.5071 5.20533C10.6824 4.94248 11.0374 4.87314 11.2995 5.04762C11.5631 5.22286 11.6347 5.5779 11.4595 5.84V5.84076Z" fill="#F456A1"/>
</svg>
