<svg width="32" height="32" viewBox="0 0 32 32" fill="none" xmlns="http://www.w3.org/2000/svg">
<path d="M12.792 5.25333C12.912 4.53067 13.5387 4 14.272 4H17.7293C18.4627 4 19.0893 4.53067 19.2093 5.25333L19.4933 6.96133C19.5773 7.46 19.9107 7.876 20.3533 8.12133C20.452 8.17467 20.5493 8.232 20.6467 8.29067C21.0787 8.552 21.6067 8.63333 22.08 8.456L23.7027 7.848C24.0352 7.72294 24.4013 7.71997 24.7358 7.83962C25.0704 7.95926 25.3516 8.19375 25.5293 8.50133L27.2573 11.4973C27.4348 11.8049 27.4973 12.1655 27.4338 12.5149C27.3703 12.8643 27.185 13.1798 26.9107 13.4053L25.5733 14.508C25.1827 14.828 24.9893 15.3253 24.9987 15.8307C25.0008 15.944 25.0008 16.0573 24.9987 16.1707C24.9893 16.6747 25.1827 17.1707 25.572 17.4907L26.912 18.5947C27.4773 19.0613 27.624 19.8667 27.2587 20.5013L25.528 23.4973C25.3505 23.8048 25.0696 24.0394 24.7354 24.1593C24.4011 24.2792 24.0352 24.2766 23.7027 24.152L22.08 23.544C21.6067 23.3667 21.08 23.448 20.6453 23.7093C20.5487 23.7681 20.4509 23.825 20.352 23.88C19.9107 24.124 19.5773 24.54 19.4933 25.0387L19.2093 26.7453C19.0893 27.4693 18.4627 28 17.7293 28H14.2707C13.5373 28 12.9107 27.4693 12.7907 26.7467L12.5067 25.0387C12.424 24.54 12.0907 24.124 11.648 23.8787C11.5491 23.8241 11.4513 23.7677 11.3547 23.7093C10.9213 23.448 10.3947 23.3667 9.92001 23.544L8.29734 24.152C7.96498 24.2767 7.59916 24.2795 7.26494 24.1599C6.93072 24.0402 6.64976 23.8059 6.47201 23.4987L4.74268 20.5027C4.56527 20.1951 4.50274 19.8345 4.56622 19.4851C4.6297 19.1357 4.81507 18.8202 5.08934 18.5947L6.42801 17.492C6.81734 17.172 7.01068 16.6747 7.00134 16.1693C6.99926 16.056 6.99926 15.9427 7.00134 15.8293C7.01068 15.3253 6.81734 14.8293 6.42801 14.5093L5.08934 13.4053C4.8154 13.1799 4.63024 12.8646 4.56677 12.5155C4.5033 12.1664 4.56563 11.8061 4.74268 11.4987L6.47201 8.50267C6.64959 8.19485 6.93069 7.96008 7.26523 7.84018C7.59976 7.72029 7.966 7.72306 8.29868 7.848L9.92001 8.456C10.3947 8.63333 10.9213 8.552 11.3547 8.29067C11.4507 8.232 11.5493 8.17467 11.648 8.12C12.0907 7.876 12.424 7.46 12.5067 6.96133L12.792 5.25333Z" stroke="white" stroke-width="2" stroke-linecap="round" stroke-linejoin="round"/>
<path d="M20 16C20 17.0609 19.5786 18.0783 18.8284 18.8284C18.0783 19.5786 17.0609 20 16 20C14.9391 20 13.9217 19.5786 13.1716 18.8284C12.4214 18.0783 12 17.0609 12 16C12 14.9391 12.4214 13.9217 13.1716 13.1716C13.9217 12.4214 14.9391 12 16 12C17.0609 12 18.0783 12.4214 18.8284 13.1716C19.5786 13.9217 20 14.9391 20 16Z" stroke="white" stroke-width="2" stroke-linecap="round" stroke-linejoin="round"/>
</svg>
